<svg version="1.1" xmlns="http://www.w3.org/2000/svg" viewBox="0 0 317.81080019759565 138.40958283942473" width="635.6216003951913" height="276.81916567884946">
    <!-- svg-source:excalidraw -->

    <defs>
        <style class="style-fonts">
            @font-face {
            font-family: "Virgil";
            src: url("https://excalidraw.com/Virgil.woff2");
            }
            @font-face {
            font-family: "Cascadia";
            src: url("https://excalidraw.com/Cascadia.woff2");
            }
            @font-face {
            font-family: "Assistant";
            src: url("https://excalidraw.com/Assistant-Regular.woff2");
            }
        </style>

    </defs>
<g stroke-linecap="round" transform="translate(11.261819463161373 13.27635641914867) rotate(0 147.22685158209902 56.12750660708048)"><path d="M28.06 0 C102.45 5.04, 174.12 2.3, 266.39 0 C286.88 1.14, 291.49 11.35, 294.45 28.06 C293.4 44.23, 295.83 62.92, 294.45 84.19 C295.36 103.78, 282.41 112.29, 266.39 112.26 C193.29 115.99, 125.45 113.8, 28.06 112.26 C9.04 110.34, -3.01 100.18, 0 84.19 C-1.54 60.39, 0.25 43.46, 0 28.06 C2.71 9, 7.74 -2.67, 28.06 0" stroke="none" stroke-width="0" fill="#ffffff"></path><path d="M28.06 0 C105.2 -0.78, 182.99 -1.67, 266.39 0 M28.06 0 C99.92 0.56, 170.62 0.21, 266.39 0 M266.39 0 C284.72 1.08, 293.69 9.45, 294.45 28.06 M266.39 0 C285.47 -1.96, 296.69 7.47, 294.45 28.06 M294.45 28.06 C296.12 41.01, 294.82 55.16, 294.45 84.19 M294.45 28.06 C295.04 45.95, 294.81 62.33, 294.45 84.19 M294.45 84.19 C292.85 103.62, 285.05 113.94, 266.39 112.26 M294.45 84.19 C292.82 103.25, 286.27 113.38, 266.39 112.26 M266.39 112.26 C181.54 114.95, 94.01 114.21, 28.06 112.26 M266.39 112.26 C196.79 111.65, 128.4 111.5, 28.06 112.26 M28.06 112.26 C9.33 113.88, 0.19 101.24, 0 84.19 M28.06 112.26 C9.34 111.57, 1.72 101.98, 0 84.19 M0 84.19 C-1.38 64.47, 0.88 44.78, 0 28.06 M0 84.19 C-0.44 69.35, 1.03 55.85, 0 28.06 M0 28.06 C1.79 7.41, 8.72 0.71, 28.06 0 M0 28.06 C-0.96 10.99, 7.58 0.9, 28.06 0" stroke="#1e1e1e" stroke-width="1" fill="none"></path></g><g stroke-linecap="round"><g transform="translate(40.276628607066414 11.96933917979959) rotate(0 0 56.564395982244605)"><path d="M0.28 0.97 C0.41 19.84, 0.57 94.61, 0.72 113.47 M-1.03 0.43 C-1 18.9, -0.19 92.89, 0.14 111.53" stroke="#1e1e1e" stroke-width="1" fill="none"></path></g></g><mask></mask><g stroke-linecap="round"><g transform="translate(70.64801527721465 14.495105939186942) rotate(0 0 56.564395982244605)"><path d="M-0.85 -0.29 C-0.59 18.8, 0.27 94.89, 0.58 113.91 M0.9 -1.49 C1.14 17.31, -0.05 93.3, -0.07 112.2" stroke="#1e1e1e" stroke-width="1" fill="none"></path></g></g><mask></mask><g stroke-linecap="round"><g transform="translate(103.48408525124478 14.093508463409762) rotate(0 0 56.564395982244605)"><path d="M-0.12 -1.18 C-0.27 17.93, -0.34 94.66, -0.5 113.55 M-1.65 0.82 C-2.03 19.66, -2.19 92.95, -1.71 111.65" stroke="#1e1e1e" stroke-width="1" fill="none"></path></g></g><mask></mask><g stroke-linecap="round"><g transform="translate(130.264552075369 13.136976293830685) rotate(0 0 56.564395982244605)"><path d="M1.12 0.77 C1.19 19.34, 0.73 93.6, 0.67 112.3 M0.25 0.13 C0.2 18.75, 0.05 94.39, 0.08 113.4" stroke="#1e1e1e" stroke-width="1" fill="none"></path></g></g><mask></mask><g stroke-linecap="round"><g transform="translate(159.42052881681866 12.465213243439393) rotate(0 0 56.564395982244605)"><path d="M0.76 0.63 C1.03 19.48, 0.93 94.32, 0.72 113.18 M-0.3 -0.08 C-0.05 18.97, 0.36 96.1, 0.16 114.74" stroke="#1e1e1e" stroke-width="1" fill="none"></path></g></g><mask></mask><g stroke-linecap="round"><g transform="translate(189.66446962901273 12.640455778323485) rotate(0 0 56.564395982244605)"><path d="M-0.86 0.05 C-0.84 18.85, -1.24 93.94, -0.91 112.91 M0.88 -0.96 C1.37 18, 1.32 95.52, 1.32 114.33" stroke="#1e1e1e" stroke-width="1" fill="none"></path></g></g><mask></mask><g stroke-linecap="round"><g transform="translate(219.49951119314073 13.022581861335766) rotate(0 0 56.564395982244605)"><path d="M-1.02 -1.17 C-0.86 17.84, -0.09 94.58, 0.2 113.82 M0.64 0.83 C0.73 19.51, -0.58 93.44, -0.64 112.05" stroke="#1e1e1e" stroke-width="1" fill="none"></path></g></g><mask></mask><g stroke-linecap="round"><g transform="translate(251.29629557834096 11.019462330639271) rotate(0 0 56.564395982244605)"><path d="M-0.65 -1.02 C-0.62 17.88, -0.92 93.91, -0.87 113.01 M1.22 1.06 C1.71 20.19, 1.8 96.08, 1.39 114.48" stroke="#1e1e1e" stroke-width="1" fill="none"></path></g></g><mask></mask><g stroke-linecap="round"><g transform="translate(283.3194349044338 12.720775273478921) rotate(0 0 56.564395982244605)"><path d="M0.91 -0.95 C1.11 17.66, 0.17 92.95, 0.15 111.94 M-0.07 1.16 C0.07 19.85, -0.81 94.01, -0.72 112.85" stroke="#1e1e1e" stroke-width="1" fill="none"></path></g></g><mask></mask><g stroke-linecap="round"><g transform="translate(12.018769856900235 40.33672451426855) rotate(0 147.70268374279317 0)"><path d="M-0.55 0.86 C48.64 0.93, 246.21 0.61, 295.66 0.52 M1.36 0.26 C50.37 -0.03, 245.78 -1.58, 294.84 -1.33" stroke="#1e1e1e" stroke-width="1" fill="none"></path></g></g><mask></mask><g stroke-linecap="round"><g transform="translate(11.415156681185636 69.69228303156024) rotate(0 148.11036602880995 0)"><path d="M-0.31 -0.42 C49.1 -0.61, 246.97 -0.12, 296.4 -0.05 M1.73 -1.69 C51 -1.16, 246.58 0.96, 295.54 1.46" stroke="#1e1e1e" stroke-width="1" fill="none"></path></g></g><mask></mask><g stroke-linecap="round"><g transform="translate(10.568151095909798 96.21475390154774) rotate(0 147.83898349214792 0)"><path d="M0.58 0.13 C50.07 -0.01, 246.93 -0.46, 296.2 -0.58 M-0.57 -0.84 C48.87 -0.86, 246.15 0.44, 295.53 0.66" stroke="#1e1e1e" stroke-width="1" fill="none"></path></g></g><mask></mask></svg>